<mxfile host="app.diagrams.net" modified="2020-11-13T10:55:10.733Z" agent="5.0 (Windows NT 10.0; Win64; x64) AppleWebKit/537.36 (KHTML, like Gecko) Chrome/86.0.4240.193 Safari/537.36" etag="YmTdUNreNXAqTGk9mssa" version="13.9.7" type="github">
  <diagram id="R2lEEEUBdFMjLlhIrx00" name="Page-1">
    <mxGraphModel dx="1826" dy="1847" grid="1" gridSize="10" guides="1" tooltips="1" connect="1" arrows="1" fold="1" page="1" pageScale="1" pageWidth="850" pageHeight="1100" math="0" shadow="0" extFonts="Permanent Marker^https://fonts.googleapis.com/css?family=Permanent+Marker">
      <root>
        <mxCell id="0" />
        <mxCell id="1" parent="0" />
        <mxCell id="iZqWEXOovMGtVJup3c-P-1" value="Delegació" style="rounded=0;whiteSpace=wrap;html=1;" vertex="1" parent="1">
          <mxGeometry x="250" y="260" width="100" height="40" as="geometry" />
        </mxCell>
        <mxCell id="iZqWEXOovMGtVJup3c-P-2" value="" style="endArrow=none;html=1;exitX=0;exitY=0;exitDx=0;exitDy=0;" edge="1" parent="1" source="iZqWEXOovMGtVJup3c-P-1">
          <mxGeometry width="50" height="50" relative="1" as="geometry">
            <mxPoint x="240" y="260" as="sourcePoint" />
            <mxPoint x="240" y="230" as="targetPoint" />
          </mxGeometry>
        </mxCell>
        <mxCell id="iZqWEXOovMGtVJup3c-P-3" value="&lt;u&gt;Nom&lt;/u&gt;" style="ellipse;whiteSpace=wrap;html=1;" vertex="1" parent="1">
          <mxGeometry x="210" y="210" width="60" height="40" as="geometry" />
        </mxCell>
        <mxCell id="iZqWEXOovMGtVJup3c-P-4" value="" style="endArrow=none;html=1;exitX=0.5;exitY=0;exitDx=0;exitDy=0;" edge="1" parent="1" source="iZqWEXOovMGtVJup3c-P-1">
          <mxGeometry width="50" height="50" relative="1" as="geometry">
            <mxPoint x="290" y="260" as="sourcePoint" />
            <mxPoint x="300" y="210" as="targetPoint" />
          </mxGeometry>
        </mxCell>
        <mxCell id="iZqWEXOovMGtVJup3c-P-5" value="Telèfon" style="ellipse;whiteSpace=wrap;html=1;" vertex="1" parent="1">
          <mxGeometry x="270" y="170" width="60" height="50" as="geometry" />
        </mxCell>
        <mxCell id="iZqWEXOovMGtVJup3c-P-6" value="" style="endArrow=none;html=1;" edge="1" parent="1">
          <mxGeometry width="50" height="50" relative="1" as="geometry">
            <mxPoint x="340" y="260" as="sourcePoint" />
            <mxPoint x="360" y="230" as="targetPoint" />
          </mxGeometry>
        </mxCell>
        <mxCell id="iZqWEXOovMGtVJup3c-P-7" value="Ciutat" style="ellipse;whiteSpace=wrap;html=1;" vertex="1" parent="1">
          <mxGeometry x="330" y="200" width="60" height="40" as="geometry" />
        </mxCell>
        <mxCell id="iZqWEXOovMGtVJup3c-P-9" value="Personal" style="rounded=0;whiteSpace=wrap;html=1;" vertex="1" parent="1">
          <mxGeometry x="540" y="130" width="120" height="40" as="geometry" />
        </mxCell>
        <mxCell id="iZqWEXOovMGtVJup3c-P-10" value="Administradors" style="rounded=0;whiteSpace=wrap;html=1;" vertex="1" parent="1">
          <mxGeometry x="470" y="360" width="120" height="40" as="geometry" />
        </mxCell>
        <mxCell id="iZqWEXOovMGtVJup3c-P-11" value="&lt;u&gt;CodiEmpleat&lt;/u&gt;" style="ellipse;whiteSpace=wrap;html=1;" vertex="1" parent="1">
          <mxGeometry x="730" y="40" width="80" height="40" as="geometry" />
        </mxCell>
        <mxCell id="iZqWEXOovMGtVJup3c-P-12" value="Nom" style="ellipse;whiteSpace=wrap;html=1;" vertex="1" parent="1">
          <mxGeometry x="730" y="165" width="50" height="30" as="geometry" />
        </mxCell>
        <mxCell id="iZqWEXOovMGtVJup3c-P-13" value="Telèfon" style="ellipse;whiteSpace=wrap;html=1;" vertex="1" parent="1">
          <mxGeometry x="730" y="130" width="60" height="30" as="geometry" />
        </mxCell>
        <mxCell id="iZqWEXOovMGtVJup3c-P-14" value="" style="endArrow=none;html=1;entryX=0;entryY=0.5;entryDx=0;entryDy=0;exitX=1;exitY=0.5;exitDx=0;exitDy=0;" edge="1" parent="1" source="iZqWEXOovMGtVJup3c-P-9" target="iZqWEXOovMGtVJup3c-P-13">
          <mxGeometry width="50" height="50" relative="1" as="geometry">
            <mxPoint x="640" y="130" as="sourcePoint" />
            <mxPoint x="645" y="100" as="targetPoint" />
          </mxGeometry>
        </mxCell>
        <mxCell id="iZqWEXOovMGtVJup3c-P-15" value="" style="endArrow=none;html=1;entryX=0;entryY=1;entryDx=0;entryDy=0;exitX=1;exitY=0;exitDx=0;exitDy=0;" edge="1" parent="1" source="iZqWEXOovMGtVJup3c-P-9" target="iZqWEXOovMGtVJup3c-P-11">
          <mxGeometry width="50" height="50" relative="1" as="geometry">
            <mxPoint x="510" y="170" as="sourcePoint" />
            <mxPoint x="560" y="120" as="targetPoint" />
          </mxGeometry>
        </mxCell>
        <mxCell id="iZqWEXOovMGtVJup3c-P-16" value="" style="endArrow=none;html=1;entryX=0.5;entryY=1;entryDx=0;entryDy=0;exitX=1;exitY=1;exitDx=0;exitDy=0;" edge="1" parent="1" source="iZqWEXOovMGtVJup3c-P-9" target="iZqWEXOovMGtVJup3c-P-12">
          <mxGeometry width="50" height="50" relative="1" as="geometry">
            <mxPoint x="560" y="140" as="sourcePoint" />
            <mxPoint x="610" y="90" as="targetPoint" />
          </mxGeometry>
        </mxCell>
        <mxCell id="iZqWEXOovMGtVJup3c-P-17" value="Any naix." style="ellipse;whiteSpace=wrap;html=1;" vertex="1" parent="1">
          <mxGeometry x="712.5" y="90" width="60" height="40" as="geometry" />
        </mxCell>
        <mxCell id="iZqWEXOovMGtVJup3c-P-18" value="" style="endArrow=none;html=1;exitX=1;exitY=0;exitDx=0;exitDy=0;" edge="1" parent="1" source="iZqWEXOovMGtVJup3c-P-9">
          <mxGeometry width="50" height="50" relative="1" as="geometry">
            <mxPoint x="660" y="140" as="sourcePoint" />
            <mxPoint x="710" y="110" as="targetPoint" />
          </mxGeometry>
        </mxCell>
        <mxCell id="iZqWEXOovMGtVJup3c-P-19" value="Conductors" style="rounded=0;whiteSpace=wrap;html=1;" vertex="1" parent="1">
          <mxGeometry x="680" y="360" width="120" height="40" as="geometry" />
        </mxCell>
        <mxCell id="iZqWEXOovMGtVJup3c-P-20" value="" style="endArrow=none;html=1;" edge="1" parent="1" source="iZqWEXOovMGtVJup3c-P-21">
          <mxGeometry width="50" height="50" relative="1" as="geometry">
            <mxPoint x="480" y="440" as="sourcePoint" />
            <mxPoint x="490" y="400" as="targetPoint" />
          </mxGeometry>
        </mxCell>
        <mxCell id="iZqWEXOovMGtVJup3c-P-21" value="Nivell estudis" style="ellipse;whiteSpace=wrap;html=1;" vertex="1" parent="1">
          <mxGeometry x="390" y="390" width="60" height="40" as="geometry" />
        </mxCell>
        <mxCell id="iZqWEXOovMGtVJup3c-P-22" value="" style="endArrow=none;html=1;entryX=1;entryY=0.25;entryDx=0;entryDy=0;exitX=0;exitY=1;exitDx=0;exitDy=0;" edge="1" parent="1" source="iZqWEXOovMGtVJup3c-P-23" target="iZqWEXOovMGtVJup3c-P-19">
          <mxGeometry width="50" height="50" relative="1" as="geometry">
            <mxPoint x="780" y="450" as="sourcePoint" />
            <mxPoint x="780" y="420" as="targetPoint" />
          </mxGeometry>
        </mxCell>
        <mxCell id="iZqWEXOovMGtVJup3c-P-23" value="Tipus de carnet" style="ellipse;whiteSpace=wrap;html=1;" vertex="1" parent="1">
          <mxGeometry x="810" y="320" width="90" height="40" as="geometry" />
        </mxCell>
        <mxCell id="iZqWEXOovMGtVJup3c-P-24" value="Temps amb carnet" style="ellipse;whiteSpace=wrap;html=1;" vertex="1" parent="1">
          <mxGeometry x="840" y="380" width="60" height="50" as="geometry" />
        </mxCell>
        <mxCell id="iZqWEXOovMGtVJup3c-P-25" value="" style="endArrow=none;html=1;" edge="1" parent="1" source="iZqWEXOovMGtVJup3c-P-24">
          <mxGeometry width="50" height="50" relative="1" as="geometry">
            <mxPoint x="700" y="430" as="sourcePoint" />
            <mxPoint x="800" y="390" as="targetPoint" />
          </mxGeometry>
        </mxCell>
        <mxCell id="iZqWEXOovMGtVJup3c-P-26" value="" style="endArrow=none;html=1;entryX=0.5;entryY=1;entryDx=0;entryDy=0;" edge="1" parent="1" target="iZqWEXOovMGtVJup3c-P-9">
          <mxGeometry width="50" height="50" relative="1" as="geometry">
            <mxPoint x="600" y="200" as="sourcePoint" />
            <mxPoint x="610" y="180" as="targetPoint" />
          </mxGeometry>
        </mxCell>
        <mxCell id="iZqWEXOovMGtVJup3c-P-27" value="" style="endArrow=none;html=1;" edge="1" parent="1">
          <mxGeometry width="50" height="50" relative="1" as="geometry">
            <mxPoint x="530" y="200" as="sourcePoint" />
            <mxPoint x="740" y="200" as="targetPoint" />
          </mxGeometry>
        </mxCell>
        <mxCell id="iZqWEXOovMGtVJup3c-P-28" value="" style="endArrow=none;html=1;exitX=0.5;exitY=0;exitDx=0;exitDy=0;" edge="1" parent="1" source="iZqWEXOovMGtVJup3c-P-10">
          <mxGeometry width="50" height="50" relative="1" as="geometry">
            <mxPoint x="470" y="280" as="sourcePoint" />
            <mxPoint x="530" y="200" as="targetPoint" />
          </mxGeometry>
        </mxCell>
        <mxCell id="iZqWEXOovMGtVJup3c-P-29" value="" style="endArrow=none;html=1;exitX=0.5;exitY=0;exitDx=0;exitDy=0;" edge="1" parent="1" source="iZqWEXOovMGtVJup3c-P-19">
          <mxGeometry width="50" height="50" relative="1" as="geometry">
            <mxPoint x="670" y="300" as="sourcePoint" />
            <mxPoint x="740" y="200" as="targetPoint" />
          </mxGeometry>
        </mxCell>
        <mxCell id="iZqWEXOovMGtVJup3c-P-30" value="" style="endArrow=none;html=1;exitX=1;exitY=0.5;exitDx=0;exitDy=0;" edge="1" parent="1" source="iZqWEXOovMGtVJup3c-P-1">
          <mxGeometry width="50" height="50" relative="1" as="geometry">
            <mxPoint x="380" y="290" as="sourcePoint" />
            <mxPoint x="430" y="220" as="targetPoint" />
          </mxGeometry>
        </mxCell>
        <mxCell id="iZqWEXOovMGtVJup3c-P-31" value="Assignat" style="rhombus;whiteSpace=wrap;html=1;" vertex="1" parent="1">
          <mxGeometry x="400" y="180" width="80" height="80" as="geometry" />
        </mxCell>
        <mxCell id="iZqWEXOovMGtVJup3c-P-32" value="" style="endArrow=none;html=1;exitX=1;exitY=0;exitDx=0;exitDy=0;entryX=0;entryY=0.5;entryDx=0;entryDy=0;" edge="1" parent="1" source="iZqWEXOovMGtVJup3c-P-31" target="iZqWEXOovMGtVJup3c-P-9">
          <mxGeometry width="50" height="50" relative="1" as="geometry">
            <mxPoint x="470" y="200" as="sourcePoint" />
            <mxPoint x="530" y="160" as="targetPoint" />
          </mxGeometry>
        </mxCell>
        <mxCell id="iZqWEXOovMGtVJup3c-P-33" value="1" style="text;html=1;align=center;verticalAlign=middle;resizable=0;points=[];autosize=1;" vertex="1" parent="1">
          <mxGeometry x="350" y="240" width="20" height="20" as="geometry" />
        </mxCell>
        <mxCell id="iZqWEXOovMGtVJup3c-P-34" value="n" style="text;html=1;align=center;verticalAlign=middle;resizable=0;points=[];autosize=1;" vertex="1" parent="1">
          <mxGeometry x="510" y="140" width="20" height="20" as="geometry" />
        </mxCell>
        <mxCell id="iZqWEXOovMGtVJup3c-P-35" value="Client" style="rounded=0;whiteSpace=wrap;html=1;" vertex="1" parent="1">
          <mxGeometry x="1040" y="140" width="120" height="40" as="geometry" />
        </mxCell>
        <mxCell id="iZqWEXOovMGtVJup3c-P-36" value="" style="endArrow=none;html=1;exitX=1;exitY=0;exitDx=0;exitDy=0;" edge="1" parent="1" source="iZqWEXOovMGtVJup3c-P-35">
          <mxGeometry width="50" height="50" relative="1" as="geometry">
            <mxPoint x="1130" y="140" as="sourcePoint" />
            <mxPoint x="1170" y="90" as="targetPoint" />
          </mxGeometry>
        </mxCell>
        <mxCell id="iZqWEXOovMGtVJup3c-P-37" value="" style="endArrow=none;html=1;exitX=0.073;exitY=0.04;exitDx=0;exitDy=0;exitPerimeter=0;" edge="1" parent="1" source="iZqWEXOovMGtVJup3c-P-35" target="iZqWEXOovMGtVJup3c-P-38">
          <mxGeometry width="50" height="50" relative="1" as="geometry">
            <mxPoint x="1050" y="130" as="sourcePoint" />
            <mxPoint x="1050" y="90" as="targetPoint" />
          </mxGeometry>
        </mxCell>
        <mxCell id="iZqWEXOovMGtVJup3c-P-38" value="&lt;u&gt;CodiClient&lt;/u&gt;" style="ellipse;whiteSpace=wrap;html=1;" vertex="1" parent="1">
          <mxGeometry x="990" y="70" width="70" height="40" as="geometry" />
        </mxCell>
        <mxCell id="iZqWEXOovMGtVJup3c-P-39" value="" style="endArrow=none;html=1;exitX=0.5;exitY=0;exitDx=0;exitDy=0;" edge="1" parent="1" source="iZqWEXOovMGtVJup3c-P-35">
          <mxGeometry width="50" height="50" relative="1" as="geometry">
            <mxPoint x="1090" y="140" as="sourcePoint" />
            <mxPoint x="1100" y="90" as="targetPoint" />
          </mxGeometry>
        </mxCell>
        <mxCell id="iZqWEXOovMGtVJup3c-P-40" value="Nom" style="ellipse;whiteSpace=wrap;html=1;" vertex="1" parent="1">
          <mxGeometry x="1065" y="60" width="70" height="40" as="geometry" />
        </mxCell>
        <mxCell id="iZqWEXOovMGtVJup3c-P-41" value="Telèfon" style="ellipse;whiteSpace=wrap;html=1;" vertex="1" parent="1">
          <mxGeometry x="1140" y="60" width="60" height="40" as="geometry" />
        </mxCell>
        <mxCell id="iZqWEXOovMGtVJup3c-P-42" value="Camió" style="rounded=0;whiteSpace=wrap;html=1;" vertex="1" parent="1">
          <mxGeometry x="702.5" y="600" width="120" height="40" as="geometry" />
        </mxCell>
        <mxCell id="iZqWEXOovMGtVJup3c-P-43" value="" style="endArrow=none;html=1;exitX=0;exitY=1;exitDx=0;exitDy=0;entryX=0.651;entryY=0.03;entryDx=0;entryDy=0;entryPerimeter=0;" edge="1" parent="1" source="iZqWEXOovMGtVJup3c-P-42" target="iZqWEXOovMGtVJup3c-P-44">
          <mxGeometry width="50" height="50" relative="1" as="geometry">
            <mxPoint x="712.5" y="600" as="sourcePoint" />
            <mxPoint x="692.5" y="560" as="targetPoint" />
          </mxGeometry>
        </mxCell>
        <mxCell id="iZqWEXOovMGtVJup3c-P-44" value="&lt;u&gt;Codi&lt;/u&gt;" style="ellipse;whiteSpace=wrap;html=1;" vertex="1" parent="1">
          <mxGeometry x="640" y="677.5" width="70" height="30" as="geometry" />
        </mxCell>
        <mxCell id="iZqWEXOovMGtVJup3c-P-45" value="" style="endArrow=none;html=1;exitX=0.343;exitY=1.06;exitDx=0;exitDy=0;exitPerimeter=0;entryX=0.5;entryY=1;entryDx=0;entryDy=0;" edge="1" parent="1" source="iZqWEXOovMGtVJup3c-P-42" target="iZqWEXOovMGtVJup3c-P-46">
          <mxGeometry width="50" height="50" relative="1" as="geometry">
            <mxPoint x="742.5" y="600" as="sourcePoint" />
            <mxPoint x="752.5" y="540" as="targetPoint" />
          </mxGeometry>
        </mxCell>
        <mxCell id="iZqWEXOovMGtVJup3c-P-46" value="Marca" style="ellipse;whiteSpace=wrap;html=1;" vertex="1" parent="1">
          <mxGeometry x="712.5" y="677.5" width="45" height="30" as="geometry" />
        </mxCell>
        <mxCell id="iZqWEXOovMGtVJup3c-P-47" value="" style="endArrow=none;html=1;entryX=0.353;entryY=1.026;entryDx=0;entryDy=0;entryPerimeter=0;" edge="1" parent="1" source="iZqWEXOovMGtVJup3c-P-42" target="iZqWEXOovMGtVJup3c-P-48">
          <mxGeometry width="50" height="50" relative="1" as="geometry">
            <mxPoint x="782.5" y="590" as="sourcePoint" />
            <mxPoint x="792.5" y="540" as="targetPoint" />
          </mxGeometry>
        </mxCell>
        <mxCell id="iZqWEXOovMGtVJup3c-P-48" value="Matricula" style="ellipse;whiteSpace=wrap;html=1;" vertex="1" parent="1">
          <mxGeometry x="760" y="660" width="55" height="35" as="geometry" />
        </mxCell>
        <mxCell id="iZqWEXOovMGtVJup3c-P-49" value="" style="endArrow=none;html=1;entryX=0.292;entryY=0.007;entryDx=0;entryDy=0;entryPerimeter=0;" edge="1" parent="1" target="iZqWEXOovMGtVJup3c-P-50">
          <mxGeometry width="50" height="50" relative="1" as="geometry">
            <mxPoint x="811" y="640" as="sourcePoint" />
            <mxPoint x="852.5" y="560" as="targetPoint" />
          </mxGeometry>
        </mxCell>
        <mxCell id="iZqWEXOovMGtVJup3c-P-50" value="Tara" style="ellipse;whiteSpace=wrap;html=1;" vertex="1" parent="1">
          <mxGeometry x="815" y="672.5" width="50" height="40" as="geometry" />
        </mxCell>
        <mxCell id="iZqWEXOovMGtVJup3c-P-51" value="" style="endArrow=none;html=1;entryX=0.663;entryY=0.98;entryDx=0;entryDy=0;entryPerimeter=0;" edge="1" parent="1" target="iZqWEXOovMGtVJup3c-P-19">
          <mxGeometry width="50" height="50" relative="1" as="geometry">
            <mxPoint x="760" y="470" as="sourcePoint" />
            <mxPoint x="610" y="590" as="targetPoint" />
          </mxGeometry>
        </mxCell>
        <mxCell id="iZqWEXOovMGtVJup3c-P-53" value="Condueixen" style="rhombus;whiteSpace=wrap;html=1;" vertex="1" parent="1">
          <mxGeometry x="720" y="460" width="80" height="80" as="geometry" />
        </mxCell>
        <mxCell id="iZqWEXOovMGtVJup3c-P-54" value="" style="endArrow=none;html=1;entryX=0.5;entryY=1;entryDx=0;entryDy=0;" edge="1" parent="1" target="iZqWEXOovMGtVJup3c-P-53">
          <mxGeometry width="50" height="50" relative="1" as="geometry">
            <mxPoint x="760" y="600" as="sourcePoint" />
            <mxPoint x="790" y="580" as="targetPoint" />
          </mxGeometry>
        </mxCell>
        <mxCell id="iZqWEXOovMGtVJup3c-P-55" value="1" style="text;html=1;align=center;verticalAlign=middle;resizable=0;points=[];autosize=1;" vertex="1" parent="1">
          <mxGeometry x="760" y="530" width="20" height="20" as="geometry" />
        </mxCell>
        <mxCell id="iZqWEXOovMGtVJup3c-P-56" value="1" style="text;html=1;align=center;verticalAlign=middle;resizable=0;points=[];autosize=1;" vertex="1" parent="1">
          <mxGeometry x="760" y="400" width="20" height="20" as="geometry" />
        </mxCell>
        <mxCell id="iZqWEXOovMGtVJup3c-P-57" value="D.T" style="text;html=1;align=center;verticalAlign=middle;resizable=0;points=[];autosize=1;" vertex="1" parent="1">
          <mxGeometry x="625" y="170" width="30" height="20" as="geometry" />
        </mxCell>
        <mxCell id="iZqWEXOovMGtVJup3c-P-58" value="Viatges" style="rounded=0;whiteSpace=wrap;html=1;" vertex="1" parent="1">
          <mxGeometry x="240" y="480" width="120" height="40" as="geometry" />
        </mxCell>
        <mxCell id="iZqWEXOovMGtVJup3c-P-59" value="" style="endArrow=none;html=1;entryX=0.5;entryY=1;entryDx=0;entryDy=0;" edge="1" parent="1" target="iZqWEXOovMGtVJup3c-P-1">
          <mxGeometry width="50" height="50" relative="1" as="geometry">
            <mxPoint x="300" y="350" as="sourcePoint" />
            <mxPoint x="320" y="310" as="targetPoint" />
          </mxGeometry>
        </mxCell>
        <mxCell id="iZqWEXOovMGtVJup3c-P-60" value="Organitza" style="rhombus;whiteSpace=wrap;html=1;" vertex="1" parent="1">
          <mxGeometry x="260" y="340" width="80" height="80" as="geometry" />
        </mxCell>
        <mxCell id="iZqWEXOovMGtVJup3c-P-61" value="" style="endArrow=none;html=1;entryX=0.5;entryY=1;entryDx=0;entryDy=0;exitX=0.5;exitY=0;exitDx=0;exitDy=0;" edge="1" parent="1" source="iZqWEXOovMGtVJup3c-P-58" target="iZqWEXOovMGtVJup3c-P-60">
          <mxGeometry width="50" height="50" relative="1" as="geometry">
            <mxPoint x="280" y="480" as="sourcePoint" />
            <mxPoint x="330" y="430" as="targetPoint" />
          </mxGeometry>
        </mxCell>
        <mxCell id="iZqWEXOovMGtVJup3c-P-62" value="1" style="text;html=1;align=center;verticalAlign=middle;resizable=0;points=[];autosize=1;" vertex="1" parent="1">
          <mxGeometry x="300" y="300" width="20" height="20" as="geometry" />
        </mxCell>
        <mxCell id="iZqWEXOovMGtVJup3c-P-63" value="m" style="text;html=1;align=center;verticalAlign=middle;resizable=0;points=[];autosize=1;" vertex="1" parent="1">
          <mxGeometry x="295" y="420" width="30" height="20" as="geometry" />
        </mxCell>
        <mxCell id="iZqWEXOovMGtVJup3c-P-64" value="" style="endArrow=none;html=1;entryX=0;entryY=0.5;entryDx=0;entryDy=0;" edge="1" parent="1" target="iZqWEXOovMGtVJup3c-P-58">
          <mxGeometry width="50" height="50" relative="1" as="geometry">
            <mxPoint x="200" y="500" as="sourcePoint" />
            <mxPoint x="230" y="480" as="targetPoint" />
          </mxGeometry>
        </mxCell>
        <mxCell id="iZqWEXOovMGtVJup3c-P-65" value="&lt;u&gt;CodiViatge&lt;/u&gt;" style="ellipse;whiteSpace=wrap;html=1;" vertex="1" parent="1">
          <mxGeometry x="140" y="480" width="70" height="40" as="geometry" />
        </mxCell>
        <mxCell id="iZqWEXOovMGtVJup3c-P-66" value="" style="endArrow=none;html=1;entryX=0;entryY=0;entryDx=0;entryDy=0;exitX=1;exitY=0.5;exitDx=0;exitDy=0;" edge="1" parent="1" source="iZqWEXOovMGtVJup3c-P-67" target="iZqWEXOovMGtVJup3c-P-42">
          <mxGeometry width="50" height="50" relative="1" as="geometry">
            <mxPoint x="580" y="580" as="sourcePoint" />
            <mxPoint x="620" y="570" as="targetPoint" />
          </mxGeometry>
        </mxCell>
        <mxCell id="iZqWEXOovMGtVJup3c-P-67" value="Utilitzen" style="rhombus;whiteSpace=wrap;html=1;" vertex="1" parent="1">
          <mxGeometry x="470" y="592.5" width="80" height="80" as="geometry" />
        </mxCell>
        <mxCell id="iZqWEXOovMGtVJup3c-P-68" value="1" style="text;html=1;align=center;verticalAlign=middle;resizable=0;points=[];autosize=1;" vertex="1" parent="1">
          <mxGeometry x="680" y="580" width="20" height="20" as="geometry" />
        </mxCell>
        <mxCell id="iZqWEXOovMGtVJup3c-P-69" value="1" style="text;html=1;align=center;verticalAlign=middle;resizable=0;points=[];autosize=1;" vertex="1" parent="1">
          <mxGeometry x="360" y="500" width="20" height="20" as="geometry" />
        </mxCell>
        <mxCell id="iZqWEXOovMGtVJup3c-P-70" value="" style="endArrow=none;html=1;entryX=0.02;entryY=1;entryDx=0;entryDy=0;entryPerimeter=0;exitX=0;exitY=0.5;exitDx=0;exitDy=0;" edge="1" parent="1" source="iZqWEXOovMGtVJup3c-P-67" target="iZqWEXOovMGtVJup3c-P-69">
          <mxGeometry width="50" height="50" relative="1" as="geometry">
            <mxPoint x="330" y="590" as="sourcePoint" />
            <mxPoint x="380" y="540" as="targetPoint" />
          </mxGeometry>
        </mxCell>
        <mxCell id="iZqWEXOovMGtVJup3c-P-71" value="Dietes" style="rounded=0;whiteSpace=wrap;html=1;" vertex="1" parent="1">
          <mxGeometry x="535" y="500" width="120" height="40" as="geometry" />
        </mxCell>
        <mxCell id="iZqWEXOovMGtVJup3c-P-72" value="&lt;u&gt;CodiDieta&lt;/u&gt;" style="ellipse;whiteSpace=wrap;html=1;" vertex="1" parent="1">
          <mxGeometry x="530" y="547.5" width="60" height="40" as="geometry" />
        </mxCell>
        <mxCell id="iZqWEXOovMGtVJup3c-P-73" value="Import" style="ellipse;whiteSpace=wrap;html=1;" vertex="1" parent="1">
          <mxGeometry x="610" y="547.5" width="60" height="40" as="geometry" />
        </mxCell>
        <mxCell id="iZqWEXOovMGtVJup3c-P-74" value="" style="endArrow=none;html=1;entryX=0.5;entryY=0;entryDx=0;entryDy=0;exitX=0.75;exitY=1;exitDx=0;exitDy=0;" edge="1" parent="1" source="iZqWEXOovMGtVJup3c-P-71" target="iZqWEXOovMGtVJup3c-P-73">
          <mxGeometry width="50" height="50" relative="1" as="geometry">
            <mxPoint x="635" y="495" as="sourcePoint" />
            <mxPoint x="665" y="465" as="targetPoint" />
          </mxGeometry>
        </mxCell>
        <mxCell id="iZqWEXOovMGtVJup3c-P-75" value="" style="endArrow=none;html=1;entryX=0.707;entryY=0.053;entryDx=0;entryDy=0;entryPerimeter=0;" edge="1" parent="1" source="iZqWEXOovMGtVJup3c-P-71" target="iZqWEXOovMGtVJup3c-P-72">
          <mxGeometry width="50" height="50" relative="1" as="geometry">
            <mxPoint x="525" y="515" as="sourcePoint" />
            <mxPoint x="555" y="465" as="targetPoint" />
          </mxGeometry>
        </mxCell>
        <mxCell id="iZqWEXOovMGtVJup3c-P-76" value="" style="endArrow=none;html=1;exitX=1;exitY=0.5;exitDx=0;exitDy=0;" edge="1" parent="1" source="iZqWEXOovMGtVJup3c-P-42">
          <mxGeometry width="50" height="50" relative="1" as="geometry">
            <mxPoint x="840" y="640" as="sourcePoint" />
            <mxPoint x="910" y="620" as="targetPoint" />
          </mxGeometry>
        </mxCell>
        <mxCell id="iZqWEXOovMGtVJup3c-P-77" value="Transporta" style="rhombus;whiteSpace=wrap;html=1;" vertex="1" parent="1">
          <mxGeometry x="900" y="567.5" width="80" height="80" as="geometry" />
        </mxCell>
        <mxCell id="iZqWEXOovMGtVJup3c-P-78" value="" style="endArrow=none;html=1;exitX=1;exitY=0.5;exitDx=0;exitDy=0;" edge="1" parent="1" source="iZqWEXOovMGtVJup3c-P-77">
          <mxGeometry width="50" height="50" relative="1" as="geometry">
            <mxPoint x="990" y="627.5" as="sourcePoint" />
            <mxPoint x="1050" y="607.5" as="targetPoint" />
          </mxGeometry>
        </mxCell>
        <mxCell id="iZqWEXOovMGtVJup3c-P-79" value="1" style="text;html=1;align=center;verticalAlign=middle;resizable=0;points=[];autosize=1;" vertex="1" parent="1">
          <mxGeometry x="822.5" y="570" width="20" height="20" as="geometry" />
        </mxCell>
        <mxCell id="iZqWEXOovMGtVJup3c-P-80" value="n" style="text;html=1;align=center;verticalAlign=middle;resizable=0;points=[];autosize=1;" vertex="1" parent="1">
          <mxGeometry x="990" y="587.5" width="20" height="20" as="geometry" />
        </mxCell>
        <mxCell id="iZqWEXOovMGtVJup3c-P-81" value="Paquets" style="rounded=0;whiteSpace=wrap;html=1;" vertex="1" parent="1">
          <mxGeometry x="1050" y="587.5" width="120" height="40" as="geometry" />
        </mxCell>
        <mxCell id="iZqWEXOovMGtVJup3c-P-82" value="" style="endArrow=none;html=1;" edge="1" parent="1" source="iZqWEXOovMGtVJup3c-P-81">
          <mxGeometry width="50" height="50" relative="1" as="geometry">
            <mxPoint x="1170" y="657.5" as="sourcePoint" />
            <mxPoint x="1220" y="637.5" as="targetPoint" />
          </mxGeometry>
        </mxCell>
        <mxCell id="iZqWEXOovMGtVJup3c-P-83" value="&lt;u&gt;CodiPaquet&lt;/u&gt;" style="ellipse;whiteSpace=wrap;html=1;" vertex="1" parent="1">
          <mxGeometry x="1195" y="620" width="70" height="40" as="geometry" />
        </mxCell>
        <mxCell id="iZqWEXOovMGtVJup3c-P-84" value="" style="endArrow=none;html=1;entryX=0.25;entryY=0;entryDx=0;entryDy=0;" edge="1" parent="1" target="iZqWEXOovMGtVJup3c-P-81">
          <mxGeometry width="50" height="50" relative="1" as="geometry">
            <mxPoint x="1030" y="500" as="sourcePoint" />
            <mxPoint x="1110" y="637.5" as="targetPoint" />
          </mxGeometry>
        </mxCell>
        <mxCell id="iZqWEXOovMGtVJup3c-P-85" value="" style="endArrow=none;html=1;exitX=0.75;exitY=0;exitDx=0;exitDy=0;" edge="1" parent="1" source="iZqWEXOovMGtVJup3c-P-81">
          <mxGeometry width="50" height="50" relative="1" as="geometry">
            <mxPoint x="1130" y="577.5" as="sourcePoint" />
            <mxPoint x="1170" y="508" as="targetPoint" />
          </mxGeometry>
        </mxCell>
        <mxCell id="iZqWEXOovMGtVJup3c-P-87" value="Descàrrega" style="rhombus;whiteSpace=wrap;html=1;" vertex="1" parent="1">
          <mxGeometry x="990" y="450" width="80" height="80" as="geometry" />
        </mxCell>
        <mxCell id="iZqWEXOovMGtVJup3c-P-88" value="Càrrega" style="rhombus;whiteSpace=wrap;html=1;" vertex="1" parent="1">
          <mxGeometry x="1140" y="440" width="80" height="80" as="geometry" />
        </mxCell>
        <mxCell id="iZqWEXOovMGtVJup3c-P-89" value="Ciutat" style="rounded=0;whiteSpace=wrap;html=1;" vertex="1" parent="1">
          <mxGeometry x="1040" y="340" width="120" height="40" as="geometry" />
        </mxCell>
        <mxCell id="iZqWEXOovMGtVJup3c-P-90" value="" style="endArrow=none;html=1;exitX=0.5;exitY=0;exitDx=0;exitDy=0;" edge="1" parent="1" source="iZqWEXOovMGtVJup3c-P-87" target="iZqWEXOovMGtVJup3c-P-89">
          <mxGeometry width="50" height="50" relative="1" as="geometry">
            <mxPoint x="1040" y="440" as="sourcePoint" />
            <mxPoint x="1080" y="390" as="targetPoint" />
          </mxGeometry>
        </mxCell>
        <mxCell id="iZqWEXOovMGtVJup3c-P-91" value="" style="endArrow=none;html=1;entryX=1;entryY=1;entryDx=0;entryDy=0;exitX=0.5;exitY=0;exitDx=0;exitDy=0;" edge="1" parent="1" source="iZqWEXOovMGtVJup3c-P-88" target="iZqWEXOovMGtVJup3c-P-89">
          <mxGeometry width="50" height="50" relative="1" as="geometry">
            <mxPoint x="1130" y="430" as="sourcePoint" />
            <mxPoint x="1180" y="380" as="targetPoint" />
          </mxGeometry>
        </mxCell>
        <mxCell id="iZqWEXOovMGtVJup3c-P-92" value="" style="endArrow=none;html=1;exitX=1;exitY=0;exitDx=0;exitDy=0;" edge="1" parent="1" source="iZqWEXOovMGtVJup3c-P-89">
          <mxGeometry width="50" height="50" relative="1" as="geometry">
            <mxPoint x="1170" y="350" as="sourcePoint" />
            <mxPoint x="1220" y="340" as="targetPoint" />
          </mxGeometry>
        </mxCell>
        <mxCell id="iZqWEXOovMGtVJup3c-P-93" value="Nom" style="ellipse;whiteSpace=wrap;html=1;" vertex="1" parent="1">
          <mxGeometry x="1205" y="310" width="60" height="50" as="geometry" />
        </mxCell>
        <mxCell id="iZqWEXOovMGtVJup3c-P-94" value="" style="endArrow=none;html=1;entryX=1;entryY=1;entryDx=0;entryDy=0;" edge="1" parent="1" target="iZqWEXOovMGtVJup3c-P-89">
          <mxGeometry width="50" height="50" relative="1" as="geometry">
            <mxPoint x="1210" y="390" as="sourcePoint" />
            <mxPoint x="1240" y="370" as="targetPoint" />
          </mxGeometry>
        </mxCell>
        <mxCell id="iZqWEXOovMGtVJup3c-P-95" value="&lt;u&gt;CodiCiutat&lt;/u&gt;" style="ellipse;whiteSpace=wrap;html=1;" vertex="1" parent="1">
          <mxGeometry x="1205" y="365" width="70" height="45" as="geometry" />
        </mxCell>
        <mxCell id="iZqWEXOovMGtVJup3c-P-96" value="" style="endArrow=none;html=1;" edge="1" parent="1">
          <mxGeometry width="50" height="50" relative="1" as="geometry">
            <mxPoint x="1110" y="340" as="sourcePoint" />
            <mxPoint x="1110" y="280" as="targetPoint" />
          </mxGeometry>
        </mxCell>
        <mxCell id="iZqWEXOovMGtVJup3c-P-97" value="Están" style="rhombus;whiteSpace=wrap;html=1;" vertex="1" parent="1">
          <mxGeometry x="1070" y="220" width="80" height="80" as="geometry" />
        </mxCell>
        <mxCell id="iZqWEXOovMGtVJup3c-P-98" value="" style="endArrow=none;html=1;exitX=0.5;exitY=0;exitDx=0;exitDy=0;" edge="1" parent="1" source="iZqWEXOovMGtVJup3c-P-97">
          <mxGeometry width="50" height="50" relative="1" as="geometry">
            <mxPoint x="1100" y="200" as="sourcePoint" />
            <mxPoint x="1110" y="180" as="targetPoint" />
          </mxGeometry>
        </mxCell>
        <mxCell id="iZqWEXOovMGtVJup3c-P-99" value="n" style="text;html=1;align=center;verticalAlign=middle;resizable=0;points=[];autosize=1;" vertex="1" parent="1">
          <mxGeometry x="1110" y="180" width="20" height="20" as="geometry" />
        </mxCell>
        <mxCell id="iZqWEXOovMGtVJup3c-P-100" value="m" style="text;html=1;align=center;verticalAlign=middle;resizable=0;points=[];autosize=1;" vertex="1" parent="1">
          <mxGeometry x="1105" y="300" width="30" height="20" as="geometry" />
        </mxCell>
        <mxCell id="iZqWEXOovMGtVJup3c-P-102" value="" style="endArrow=none;html=1;exitX=0.5;exitY=0;exitDx=0;exitDy=0;" edge="1" parent="1" source="iZqWEXOovMGtVJup3c-P-9">
          <mxGeometry width="50" height="50" relative="1" as="geometry">
            <mxPoint x="570" y="120" as="sourcePoint" />
            <mxPoint x="600" y="90" as="targetPoint" />
          </mxGeometry>
        </mxCell>
        <mxCell id="iZqWEXOovMGtVJup3c-P-103" value="Canvis de delegació" style="rhombus;whiteSpace=wrap;html=1;" vertex="1" parent="1">
          <mxGeometry x="560" y="30" width="80" height="80" as="geometry" />
        </mxCell>
        <mxCell id="iZqWEXOovMGtVJup3c-P-104" value="" style="endArrow=none;html=1;exitX=0.5;exitY=0;exitDx=0;exitDy=0;entryX=0.062;entryY=0.107;entryDx=0;entryDy=0;entryPerimeter=0;" edge="1" parent="1" source="iZqWEXOovMGtVJup3c-P-103" target="iZqWEXOovMGtVJup3c-P-109">
          <mxGeometry width="50" height="50" relative="1" as="geometry">
            <mxPoint x="580" as="sourcePoint" />
            <mxPoint x="600" y="-40" as="targetPoint" />
          </mxGeometry>
        </mxCell>
        <mxCell id="iZqWEXOovMGtVJup3c-P-105" value="Data Inici" style="rounded=0;whiteSpace=wrap;html=1;" vertex="1" parent="1">
          <mxGeometry x="550" y="-25" width="120" height="40" as="geometry" />
        </mxCell>
        <mxCell id="iZqWEXOovMGtVJup3c-P-106" value="" style="endArrow=none;html=1;" edge="1" parent="1" target="iZqWEXOovMGtVJup3c-P-103">
          <mxGeometry width="50" height="50" relative="1" as="geometry">
            <mxPoint x="510" y="50" as="sourcePoint" />
            <mxPoint x="560" y="20" as="targetPoint" />
          </mxGeometry>
        </mxCell>
        <mxCell id="iZqWEXOovMGtVJup3c-P-107" value="DataFi" style="ellipse;whiteSpace=wrap;html=1;" vertex="1" parent="1">
          <mxGeometry x="480" y="30" width="40" height="30" as="geometry" />
        </mxCell>
        <mxCell id="iZqWEXOovMGtVJup3c-P-108" value="n" style="text;html=1;align=center;verticalAlign=middle;resizable=0;points=[];autosize=1;" vertex="1" parent="1">
          <mxGeometry x="600" y="110" width="20" height="20" as="geometry" />
        </mxCell>
        <mxCell id="iZqWEXOovMGtVJup3c-P-109" value="m" style="text;html=1;align=center;verticalAlign=middle;resizable=0;points=[];autosize=1;" vertex="1" parent="1">
          <mxGeometry x="595" y="10" width="30" height="20" as="geometry" />
        </mxCell>
        <mxCell id="iZqWEXOovMGtVJup3c-P-110" value="" style="endArrow=none;html=1;exitX=1;exitY=0.25;exitDx=0;exitDy=0;" edge="1" parent="1" source="iZqWEXOovMGtVJup3c-P-105">
          <mxGeometry width="50" height="50" relative="1" as="geometry">
            <mxPoint x="670" y="20" as="sourcePoint" />
            <mxPoint x="720" y="-30" as="targetPoint" />
          </mxGeometry>
        </mxCell>
        <mxCell id="iZqWEXOovMGtVJup3c-P-111" value="&lt;u&gt;DataInici&lt;/u&gt;" style="ellipse;whiteSpace=wrap;html=1;" vertex="1" parent="1">
          <mxGeometry x="690" y="-30" width="57" height="50" as="geometry" />
        </mxCell>
        <mxCell id="iZqWEXOovMGtVJup3c-P-112" value="n" style="text;html=1;align=center;verticalAlign=middle;resizable=0;points=[];autosize=1;" vertex="1" parent="1">
          <mxGeometry x="1020" y="530" width="20" height="20" as="geometry" />
        </mxCell>
        <mxCell id="iZqWEXOovMGtVJup3c-P-113" value="n" style="text;html=1;align=center;verticalAlign=middle;resizable=0;points=[];autosize=1;" vertex="1" parent="1">
          <mxGeometry x="1160" y="530" width="20" height="20" as="geometry" />
        </mxCell>
        <mxCell id="iZqWEXOovMGtVJup3c-P-114" value="1" style="text;html=1;align=center;verticalAlign=middle;resizable=0;points=[];autosize=1;" vertex="1" parent="1">
          <mxGeometry x="1170" y="380" width="20" height="20" as="geometry" />
        </mxCell>
        <mxCell id="iZqWEXOovMGtVJup3c-P-115" value="1" style="text;html=1;align=center;verticalAlign=middle;resizable=0;points=[];autosize=1;" vertex="1" parent="1">
          <mxGeometry x="1030" y="380" width="20" height="20" as="geometry" />
        </mxCell>
        <mxCell id="iZqWEXOovMGtVJup3c-P-117" value="" style="endArrow=none;html=1;" edge="1" parent="1">
          <mxGeometry width="50" height="50" relative="1" as="geometry">
            <mxPoint x="650" y="450" as="sourcePoint" />
            <mxPoint x="700" y="400" as="targetPoint" />
          </mxGeometry>
        </mxCell>
        <mxCell id="iZqWEXOovMGtVJup3c-P-118" value="Realitzen" style="rhombus;whiteSpace=wrap;html=1;" vertex="1" parent="1">
          <mxGeometry x="580" y="410" width="80" height="70" as="geometry" />
        </mxCell>
        <mxCell id="iZqWEXOovMGtVJup3c-P-119" value="n" style="text;html=1;align=center;verticalAlign=middle;resizable=0;points=[];autosize=1;" vertex="1" parent="1">
          <mxGeometry x="700" y="400" width="20" height="20" as="geometry" />
        </mxCell>
        <mxCell id="iZqWEXOovMGtVJup3c-P-120" value="m" style="text;html=1;align=center;verticalAlign=middle;resizable=0;points=[];autosize=1;" vertex="1" parent="1">
          <mxGeometry x="605" y="480" width="30" height="20" as="geometry" />
        </mxCell>
        <mxCell id="iZqWEXOovMGtVJup3c-P-121" value="" style="endArrow=none;html=1;exitX=0.5;exitY=0;exitDx=0;exitDy=0;" edge="1" parent="1" source="iZqWEXOovMGtVJup3c-P-71" target="iZqWEXOovMGtVJup3c-P-118">
          <mxGeometry width="50" height="50" relative="1" as="geometry">
            <mxPoint x="590" y="510" as="sourcePoint" />
            <mxPoint x="640" y="460" as="targetPoint" />
          </mxGeometry>
        </mxCell>
        <mxCell id="iZqWEXOovMGtVJup3c-P-122" value="" style="endArrow=none;html=1;exitX=1;exitY=0.5;exitDx=0;exitDy=0;entryX=0;entryY=0.5;entryDx=0;entryDy=0;" edge="1" parent="1" source="iZqWEXOovMGtVJup3c-P-58" target="iZqWEXOovMGtVJup3c-P-118">
          <mxGeometry width="50" height="50" relative="1" as="geometry">
            <mxPoint x="550" y="500" as="sourcePoint" />
            <mxPoint x="600" y="450" as="targetPoint" />
          </mxGeometry>
        </mxCell>
        <mxCell id="iZqWEXOovMGtVJup3c-P-123" value="m" style="text;html=1;align=center;verticalAlign=middle;resizable=0;points=[];autosize=1;" vertex="1" parent="1">
          <mxGeometry x="365" y="460" width="30" height="20" as="geometry" />
        </mxCell>
        <mxCell id="iZqWEXOovMGtVJup3c-P-124" value="" style="endArrow=none;html=1;" edge="1" parent="1">
          <mxGeometry width="50" height="50" relative="1" as="geometry">
            <mxPoint x="780" y="360" as="sourcePoint" />
            <mxPoint x="830" y="310" as="targetPoint" />
          </mxGeometry>
        </mxCell>
        <mxCell id="iZqWEXOovMGtVJup3c-P-125" value="&lt;u&gt;CodiConduc&lt;/u&gt;" style="ellipse;whiteSpace=wrap;html=1;" vertex="1" parent="1">
          <mxGeometry x="822.5" y="280" width="97.5" height="40" as="geometry" />
        </mxCell>
        <mxCell id="iZqWEXOovMGtVJup3c-P-126" value="&lt;u&gt;CodiAdmin&lt;/u&gt;" style="ellipse;whiteSpace=wrap;html=1;" vertex="1" parent="1">
          <mxGeometry x="380" y="325" width="70" height="40" as="geometry" />
        </mxCell>
        <mxCell id="iZqWEXOovMGtVJup3c-P-127" value="" style="endArrow=none;html=1;entryX=0.959;entryY=0.76;entryDx=0;entryDy=0;entryPerimeter=0;exitX=0;exitY=0;exitDx=0;exitDy=0;" edge="1" parent="1" source="iZqWEXOovMGtVJup3c-P-10" target="iZqWEXOovMGtVJup3c-P-126">
          <mxGeometry width="50" height="50" relative="1" as="geometry">
            <mxPoint x="440" y="390" as="sourcePoint" />
            <mxPoint x="490" y="340" as="targetPoint" />
          </mxGeometry>
        </mxCell>
      </root>
    </mxGraphModel>
  </diagram>
</mxfile>
